<svg version="1.1" id="Layer_1" xmlns="http://www.w3.org/2000/svg" xmlns:xlink="http://www.w3.org/1999/xlink" x="0px" y="0px" width="427.333px" height="94.667px" viewBox="0 0 427.333 94.667" enable-background="new 0 0 427.333 94.667" xml:space="preserve">
 <g>
  <g>
   <g>
    <g>
     <g>
      <path d="M153.322,50.729c-0.184-1.234-0.097-4.502-0.097-6.782v-5.718c0-3.618-1.93-6.042-5.449-6.042
						c-2.737,0-6.492,1.947-7.995,3.888c-0.409-2.838-3.373-3.993-5.572-3.993c-3.015,0-5.9,1.598-7.454,3.817v-3.555
						c-1.667,0.144-5.707,0.358-6.92,0.392v1.168c1.451,0,1.694-0.057,2.186,0.567c0.486,0.625,0.627,2.104,0.627,9.06
						c0,1.645,0,6.736-0.318,7.522c-0.185,0.443-0.522,1.123-2.228,1.123c-2.789,0-3.903-3.984-4.944-6.441l-9.638-23.686
						c-0.314,0.167-0.906,0.406-1.35,0.516l-10.458,26c-0.964,2.434-1.993,3.588-3.975,3.588l-0.008,1.025
						c0.636,0.024,3.096-0.058,4.818-0.058c1.902-0.014,3.806,0.048,4.756,0.058v-1.025c-4.895,0-3.578-2.486-2.705-4.819
						l2.404-6.44h9.466l3.094,7.538c1.233,2.971,1.027,3.721-2.217,3.721v1.025c0.256,0,3.506-0.058,5.467-0.058
						c1.798-0.014,4.042,0.058,5.4,0.058c2.045,0,2.363-0.058,4.541-0.058c1.918-0.014,3.383,0.048,4.532,0.058v-1.001
						c-1.328,0-2.026-0.168-2.348-0.988c-0.237-0.826-0.237-4.365-0.237-7.609v-6.264c2.461-2.91,4.026-2.742,5.216-2.742
						c1.649,0,2.692,0.824,3.118,1.516c0.858,1.37,0.873,4.513,0.873,7.857c0,2.113,0.047,5.595-0.356,7.154
						c-0.248,0.859-1.428,1.075-2.793,1.075v1.001c1.203-0.01,2.785-0.058,4.827-0.058c1.908-0.014,3.841,0.048,4.99,0.058v-1.001
						c-1.558,0-1.978-0.248-2.334-1.036c-0.229-0.5-0.274-2.209-0.274-7.194v-6.631c1.681-1.837,3.988-2.299,5.457-2.347
						c1.226-0.023,2.099,0.525,2.648,1.106c1.099,1.193,1.099,4.355,1.099,7.824c0,2.1,0,5.916-0.326,7.202
						c-0.225,0.859-1.41,1.075-2.783,1.075v1.001c1.209-0.01,2.778-0.058,4.831-0.058c1.871-0.014,3.737,0.048,4.894,0.058v-1.001
						C154.188,52.176,153.553,51.881,153.322,50.729z M99.589,38.937c0,0,2.581-6.831,3.975-10.423c0,0,2.099,5.51,4.134,10.423
						H99.589z">
      </path>
      <path d="M175.074,47.991c-1.646,1.639-4.014,3.387-6.304,3.387c-5.358,0-7.421-4.212-7.069-10.167h13.902l-0.021-0.484
						c-0.055-1.322-0.613-3.054-0.613-3.054c-0.893-2.623-3.337-5.438-7.101-5.438c-4.889,0-10.714,3.664-10.714,11.253
						c0,5.349,3.636,10.246,9.283,10.246c3.857,0,6.958-1.781,9.476-4.43L175.074,47.991z M167.007,33.751
						c3.194,0,4.561,2.872,4.561,5.758h-9.66C162.225,36.576,164.255,33.751,167.007,33.751z">
      </path>
      <path d="M189.896,32.33c-1.87-0.034-4.58,1.36-5.368,4.713c0,0,0.02-4.699,0-4.699c-1.583,0.128-5.796,0.344-6.906,0.382v1.179
						c1.869,0,2.276,0.405,2.508,0.968c0.177,0.391,0.303,1.297,0.303,7.022c0,4.117,0,8.396-0.32,9.135
						c-0.233,0.538-0.64,1.122-2.743,1.122v1.025c1.078,0,3.281-0.071,5.354-0.071c1.927-0.01,3.872,0.062,5.013,0.071v-1.025
						c-1.602,0-2.696-0.216-3.021-0.988c-0.226-0.825-0.226-3.116-0.226-5.582v-6.535c0.469-1.475,1.253-4.165,3.982-4.165
						c1.386,0,1.28,2.423,2.735,2.423c1.284,0,1.972-0.954,1.972-2.003C193.179,33.966,191.814,32.377,189.896,32.33z">
      </path>
      <path d="M200.002,28.123c-1.281,0-2.33-1.064-2.33-2.386c0-1.278,1.049-2.375,2.33-2.375c1.371,0,2.423,1.097,2.423,2.375
						C202.425,27.059,201.373,28.123,200.002,28.123z M202.151,51.164c-0.237-0.825-0.237-4.618-0.237-7.585
						c0-2.934-0.044-6.837,0.049-11.235h-0.004c-1.633,0.144-5.997,0.358-6.92,0.392v1.168c1.773,0,2.188,0.706,2.419,1.254
						c0.366,0.852,0.397,6.808,0.397,8.096c0,1.598,0,6.987-0.32,7.775c-0.222,0.538-0.636,1.122-2.735,1.122v1.025
						c1.502,0,3.547-0.01,5.241-0.01c1.515,0,2.974,0.01,4.805,0.01v-1.025C203.657,52.152,202.466,51.983,202.151,51.164z">
      </path>
      <path d="M223.347,48.938c-1.951,1.664-3.935,2.57-5.738,2.57c-5.108,0-7.024-4.892-7.024-9.6c0-5.128,2.688-8.148,5.619-8.148
						c2.373,0,3.604,2.838,5.168,2.838c0.772,0,1.687-0.821,1.687-1.55c0-1.561-2.329-2.839-5.307-2.839
						c-5.483,0-11.645,3.448-11.645,11.258c0,5.119,3.61,10.232,9.354,10.232c3.268,0,5.887-1.13,8.298-3.349L223.347,48.938z">
      </path>
      <path d="M244.109,52.152c-1.563-0.101-1.92-0.661-2.124-1.146c-0.17-0.404-0.318-0.93-0.356-2.36c0,0,0.018-7.309,0.018-11.603
						c0-2.257-2.232-4.818-5.715-4.818c-4.316,0-7.35,1.989-8.472,3.506c-1.055,1.417-0.358,2.466,0.233,2.752
						c1.06,0.515,1.717-0.191,2.17-0.988c0.526-0.944,1.012-2.051,2.124-2.876c0.835-0.606,1.789-0.954,2.807-0.954
						c1.916,0,2.827,1.264,2.827,4.737c0,0.835-0.034,1.871-0.034,2.791c0,0-2.529,0.43-5.031,1.225
						c-2.605,0.826-6.245,1.947-6.574,5.506c-0.22,2.366,1.164,5.749,5.2,5.801c2.971,0.04,5.538-2.098,6.451-3.745
						c0.018,0.277-0.127,1.623,0.891,2.601c0.715,0.69,2.003,0.586,2.543,0.586c0.539,0,3.043,0,3.043,0V52.152z M237.587,48.326
						c-0.705,1.479-2.608,2.914-4.595,2.799c-1.688-0.103-3.404-1.415-3.143-3.792c0.191-1.631,1.359-2.91,3.21-3.539
						c2.269-0.778,4.527-1.064,4.527-1.064V48.326z">
      </path>
      <path d="M261.057,36.027c0.846,1.384,0.875,4.522,0.875,7.861c0,2.109,0.044,5.535-0.362,7.089
						c-0.228,0.863-1.427,1.174-2.791,1.174v1.025c1.062,0,3.565-0.071,4.878-0.071c1.884-0.01,3.792,0.062,4.931,0.071v-1.025
						c-1.536,0-1.962-0.342-2.324-1.13c-0.233-0.502-0.277-2.147-0.277-7.133v-6.273c0-1.05-0.099-1.684-0.397-2.434
						c-0.912-2.304-3.379-3.162-5.36-3.162c-3.019,0-5.931,1.599-7.496,3.816v-3.493c-1.607,0.128-5.574,0.344-6.878,0.392v1.168
						c2.1,0,2.092,0.548,2.339,1.092c0.181,0.387,0.476,1.074,0.476,8.473c0,1.66,0,6.678-0.325,7.458
						c-0.216,0.552-0.633,1.225-2.733,1.225v1.025c1.095,0,3.13-0.071,4.915-0.071c1.999-0.01,4.003,0.062,5.129,0.071v-1.025
						c-1.324,0-2.38-0.263-2.7-1.083c-0.229-0.828-0.229-4.309-0.229-7.538v-6.273c2.458-2.901,4.03-2.739,5.224-2.739
						C259.59,34.519,260.628,35.35,261.057,36.027z">
      </path>
     </g>
     <g>
      <path d="M302.714,50.669c-0.924,0.352-3.31,1.132-6.116,1.164c-8.278,0.095-12.245-5.988-12.245-13.979
						c0-2.37,0.663-12.824,11.004-12.824c4.813,0,6.821,1.486,7.097,5.582h1.313c-0.048-1.345,0.162-4.961,0.237-6.259
						c-1.192-0.349-4.878-1.541-8.581-1.541c-12.199,0-16.166,8.825-16.166,15.495c0,7.371,4.204,15.418,16.738,15.418
						c3.566,0,6.243-0.938,7.227-1.334L302.714,50.669z">
      </path>
      <path d="M321.392,47.991c-1.646,1.639-4.012,3.387-6.302,3.387c-5.356,0-7.425-4.212-7.067-10.167h13.898l-0.017-0.484
						c-0.059-1.322-0.619-3.054-0.619-3.054c-0.891-2.623-3.333-5.438-7.097-5.438c-4.891,0-10.71,3.664-10.71,11.253
						c0,5.349,3.63,10.246,9.279,10.246c3.857,0,6.964-1.781,9.474-4.43L321.392,47.991z M313.33,33.751
						c3.196,0,4.557,2.872,4.557,5.758h-9.662C308.548,36.576,310.574,33.751,313.33,33.751z">
      </path>
      <path d="M339.12,36.027c0.849,1.384,0.883,4.522,0.883,7.861c0,2.109,0.037,5.535-0.368,7.089
						c-0.23,0.863-1.422,1.174-2.791,1.174v1.025c1.059,0,3.57-0.071,4.883-0.071c1.877-0.01,3.785,0.062,4.925,0.071v-1.025
						c-1.538,0-1.96-0.342-2.326-1.13c-0.231-0.502-0.269-2.147-0.269-7.133v-6.273c0-1.05-0.105-1.684-0.398-2.434
						c-0.922-2.304-3.387-3.162-5.366-3.162c-3.019,0-5.928,1.599-7.49,3.816v-3.493c-1.61,0.128-5.582,0.344-6.882,0.392
						c-0.004,0,0,1.168,0,1.168c2.1,0,2.088,0.548,2.338,1.092c0.18,0.387,0.477,1.074,0.477,8.473c0,1.66,0,6.678-0.328,7.458
						c-0.216,0.552-0.63,1.225-2.73,1.225v1.025c1.091,0,3.13-0.071,4.915-0.071c2.004-0.01,4.001,0.062,5.129,0.071v-1.025
						c-1.326,0-2.381-0.263-2.704-1.083c-0.226-0.828-0.226-4.309-0.226-7.538v-6.273c2.457-2.901,4.03-2.739,5.224-2.739
						C337.655,34.519,338.69,35.35,339.12,36.027z">
      </path>
      <path d="M359.943,50.234c-1.384,0.954-2.037,1.204-2.768,1.204c-2.242,0-2.604-2.058-2.604-4.614c0,0,0-9.151,0.091-12.308
						h4.321v-1.79h-4.321l0.081-5.016c-1.114,0.317-2.886,0.613-4.079,0.851c0,0-0.028,1.717-0.058,4.182l-2.338,0.66v1.112h2.318
						c-0.06,4.317-0.113,9.956-0.113,13.31c0,2.934,1.35,5.901,4.873,5.901c1.788,0,3.785-1.227,4.992-2.146L359.943,50.234z">
      </path>
      <path d="M377.499,50.02l-0.018,3.157c0.995-0.018,2.183-0.071,3.608-0.071c1.377-0.01,2.791,0.053,3.894,0.071v-1.02
						c-1.598,0-2.696-0.206-3.024-0.978c-0.296-0.77-0.362-6.512-0.362-9.207c0-3.322,0.059-9.63,0.059-9.63
						c-1.209,0.153-5.716,0.392-7.096,0.382v1.179c2.104,0,2.468,0.396,2.731,0.93c0.341,0.668,0.255,5.255,0.255,7.14v6.624
						c-1.728,2.218-3.792,2.923-5.677,2.79c-2.466-0.176-3.606-2.766-3.606-4.703c0-1.181-0.131-6.483-0.125-14.341
						c-1.359,0.153-5.653,0.382-6.955,0.382v1.179c2.1,0,2.257,0.372,2.506,0.906c0.447,0.938,0.293,5.542,0.293,7.164v5.712
						c0,3.751,2.319,6.04,5.422,6.04C373.706,53.726,376.194,52.094,377.499,50.02z">
      </path>
      <path d="M399.068,32.33c-1.872-0.034-4.58,1.36-5.368,4.713c0,0,0.019-4.699,0-4.699c-1.585,0.128-5.796,0.344-6.91,0.382
						v1.179c1.871,0,2.284,0.405,2.51,0.968c0.181,0.391,0.306,1.297,0.306,7.022c0,4.117,0,8.396-0.323,9.135
						c-0.231,0.538-0.638,1.122-2.743,1.122v1.025c1.08,0,3.281-0.071,5.351-0.071c1.932-0.01,3.875,0.062,5.02,0.071v-1.025
						c-1.604,0-2.7-0.216-3.024-0.988c-0.224-0.825-0.224-3.116-0.224-5.582v-6.535c0.469-1.475,1.249-4.165,3.982-4.165
						c1.39,0,1.274,2.423,2.737,2.423c1.281,0,1.968-0.954,1.968-2.003C402.349,33.966,400.988,32.377,399.068,32.33z">
      </path>
      <path d="M426.015,33.904c-2.514,0-3.44,1.898-6.496,8.53c-0.826,1.774-2.74,6.393-4.897,11.062
						c-3.697,8.044-7.363,11.615-9.369,11.615c-0.92,0-1.641-0.732-1.645-1.6c-0.031-2.599,3.236-1.247,5.854-4.038
						c1.771-1.884,2.618-4.185,3.4-5.966c-0.687-1.6-2.193-5.73-3.416-8.832c-1.2-3.029-2.203-5.629-3.118-7.823
						c-1.051-2.56-1.552-2.949-3.569-2.949v-1.179c1.511,0,3.292,0.017,5.279,0.017c2.158,0,3.853-0.017,5.308-0.017v1.179
						c-2.382,0-2.565,0.706-2.565,1.67c0,0.777,0.918,3.697,2.059,6.765c1.646,4.484,2.331,6.034,2.331,6.034
						s1.281-2.924,2.797-6.495c1.322-3.149,2.014-4.883,2.014-6.219c0-1.318-0.461-1.755-2.48-1.755v-1.179
						c1.613,0,2.847,0.017,4.767,0.017c1.554,0,2.508-0.017,3.749-0.017V33.904z">
      </path>
     </g>
     <g>
      <path d="M95.745,65.452c0.264,0.774,0.264,3.745,0.264,11.235c0,10.718,0,12.769-0.368,13.779
						c-0.454,1.276-1.59,1.354-2.779,1.354v1.025c1.082,0,3.674-0.057,5.281-0.057c1.538,0,4.178,0.057,5.366,0.057V91.82
						c-1.277,0-2.338-0.078-2.922-1.441c-0.275-0.645-0.275-3.65-0.275-13.789c0-7.989,0.04-10.269,0.408-11.271
						c0.368-1.051,1.322-1.146,2.789-1.146v-1.178c-2.338,0-3.149,0.047-5.366,0.047c-2.186,0-3.043-0.047-5.317-0.047v1.178
						C94.232,64.173,95.325,64.308,95.745,65.452z">
      </path>
      <path d="M121.792,75.695c0.844,1.377,0.875,4.515,0.875,7.86c0,2.104,0.044,5.534-0.362,7.084
						c-0.233,0.869-1.427,1.18-2.791,1.18v1.025c1.062,0,3.565-0.071,4.878-0.071c1.884-0.01,3.786,0.053,4.931,0.071V91.82
						c-1.544,0-1.962-0.353-2.324-1.132c-0.233-0.501-0.277-2.146-0.277-7.132v-6.273c0-1.049-0.101-1.688-0.397-2.44
						c-0.918-2.302-3.387-3.155-5.358-3.155c-3.021,0-5.937,1.597-7.498,3.816v-3.5c-1.609,0.137-5.574,0.351-6.88,0.398v1.164
						c2.102,0,2.088,0.554,2.341,1.092c0.183,0.392,0.474,1.075,0.474,8.478c0,1.653,0,6.679-0.323,7.457
						c-0.215,0.548-0.631,1.228-2.735,1.228v1.025c1.097,0,3.13-0.071,4.917-0.071c1.999-0.01,4.005,0.061,5.129,0.071V91.82
						c-1.322,0-2.379-0.264-2.7-1.085c-0.231-0.83-0.231-4.307-0.231-7.543v-6.267c2.46-2.904,4.03-2.741,5.228-2.741
						C120.321,74.183,121.363,75.01,121.792,75.695z">
      </path>
      <path d="M146.957,72.394c-1.73,0-3.456-0.047-4.258-0.047v1.178c2.003,0,2.482,0.485,2.516,1.813
						c0.032,1.326-1.061,3.052-2.272,6.202c-1.401,3.567-2.438,5.843-2.438,5.843s-0.465-0.891-2.197-5.366
						c-1.309-3.387-2.475-6.178-2.482-6.902c-0.02-1.018,0.535-1.589,2.554-1.589v-1.178c-1.249,0-2.912,0.047-5.114,0.047
						c-2.043,0-4.092-0.047-5.198-0.047v1.178c1.652,0,2.482,0.396,3.638,2.995c0.958,2.195,2.016,4.794,3.265,7.801
						c1.896,4.628,3.472,8.525,3.472,8.525c0.455-0.033,1.004-0.033,1.469,0c0,0,3.29-7.642,4.642-10.758
						c2.918-6.665,4.123-8.563,6.641-8.563v-1.178C150.189,72.346,148.81,72.394,146.957,72.394z">
      </path>
      <path d="M168.398,87.758c-1.651,1.643-4.017,3.389-6.307,3.389c-5.356,0-7.419-4.218-7.063-10.166h13.896l-0.016-0.491
						c-0.058-1.322-0.618-3.054-0.618-3.054c-0.893-2.623-3.333-5.432-7.102-5.432c-4.89,0-10.709,3.658-10.709,11.253
						c0,5.349,3.634,10.246,9.277,10.246c3.86,0,6.964-1.789,9.479-4.436L168.398,87.758z M160.33,73.514
						c3.194,0,4.557,2.878,4.557,5.766h-9.656C155.552,76.344,157.578,73.514,160.33,73.514z">
      </path>
      <path d="M183.235,77.435c0.032-2.401-1.001-4.095-3.921-4.095c-2.278,0-3.842,1.009-3.865,2.743
						c-0.013,1.782,2.317,2.791,4.669,4.199c3.988,2.377,5.79,4.062,5.758,6.667c-0.033,3.792-4.119,6.439-8.364,6.439
						c-2.421,0-4.46-0.786-5.95-1.74l0.033-2.195c0.008-0.584-0.069-1.641-0.104-2.874h1.09c-0.043,3.745,2.482,5.248,5.23,5.248
						c2.41,0,4.121-1.229,4.15-3.375c0.023-2.374-2.595-3.232-5.394-4.877c-2.955-1.734-4.979-3.381-4.945-6.441
						c0.046-3.561,4.429-5.259,7.621-5.259c1.01,0,1.849,0.119,2.431,0.251c1.025,0.226,2.415,0.738,2.737,1.007
						c-0.075,0.708-0.142,3.731-0.089,4.303H183.235z">
      </path>
      <path d="M200.205,89.878c-1.383,0.958-2.044,1.201-2.765,1.201c-2.245,0-2.605-2.05-2.605-4.612c0,0,0-9.151,0.087-12.304
						h4.319v-1.79h-4.319l0.086-5.02c-1.119,0.316-2.887,0.611-4.078,0.851c0,0-0.029,1.716-0.062,4.181l-2.339,0.661v1.116h2.315
						c-0.054,4.311-0.11,9.951-0.11,13.31c0,2.93,1.352,5.897,4.873,5.897c1.791,0,3.786-1.226,4.992-2.148L200.205,89.878z">
      </path>
      <path d="M235.944,90.387c-0.19-1.226-0.096-4.494-0.096-6.782v-5.717c0-3.61-1.926-6.035-5.443-6.035
						c-2.747,0-6.492,1.948-7.995,3.89c-0.413-2.838-3.378-4.008-5.581-4.008c-3.007,0-5.899,1.613-7.451,3.816v-3.553
						c-1.471,0.133-4.686,0.317-6.9,0.38v1.184c1.623,0,1.742,0.034,2.166,0.572c0.49,0.631,0.633,2.104,0.633,9.064
						c0,1.647,0,6.738-0.322,7.52c-0.19,0.433-0.521,1.116-2.785,1.116v1.011c1.206,0,3.036-0.071,5.214-0.071
						c1.918,0,3.722,0.047,4.531,0.071v-1.011c-0.984,0-2.041-0.158-2.352-0.978c-0.238-0.835-0.238-4.364-0.238-7.609v-6.274
						c2.465-2.9,4.026-2.734,5.218-2.734c1.647,0,2.692,0.826,3.126,1.518c0.848,1.368,0.863,4.507,0.863,7.849
						c0,2.108,0.047,5.598-0.358,7.154c-0.229,0.869-1.415,1.075-2.795,1.075v1.011c1.217-0.023,2.787-0.071,4.838-0.071
						c1.908,0,3.84,0.047,4.985,0.071v-1.011c-1.552,0-1.975-0.253-2.333-1.033c-0.228-0.509-0.275-2.211-0.275-7.195v-6.633
						c1.679-1.835,3.992-2.304,5.455-2.338c1.237-0.03,2.108,0.511,2.648,1.108c1.097,1.191,1.097,4.341,1.097,7.823
						c0,2.098,0,5.917-0.314,7.193c-0.233,0.869-1.419,1.075-2.795,1.075v1.011c1.209-0.023,2.795-0.071,4.836-0.071
						c1.866,0,3.736,0.061,4.896,0.071v-1.011C236.817,91.833,236.178,91.533,235.944,90.387z">
      </path>
      <path d="M257.467,87.758c-1.653,1.643-4.019,3.389-6.309,3.389c-5.354,0-7.419-4.218-7.064-10.166h13.897l-0.017-0.491
						c-0.063-1.322-0.621-3.054-0.621-3.054c-0.889-2.623-3.329-5.432-7.099-5.432c-4.889,0-10.708,3.658-10.708,11.253
						c0,5.349,3.632,10.246,9.277,10.246c3.859,0,6.962-1.789,9.478-4.436L257.467,87.758z M249.393,73.514
						c3.196,0,4.561,2.878,4.561,5.766h-9.66C244.61,76.344,246.645,73.514,249.393,73.514z">
      </path>
      <path d="M275.309,75.695c0.848,1.377,0.875,4.515,0.875,7.86c0,2.104,0.044,5.534-0.362,7.084
						c-0.233,0.869-1.427,1.18-2.791,1.18v1.025c1.062,0,3.565-0.071,4.878-0.071c1.884-0.01,3.786,0.053,4.931,0.071V91.82
						c-1.544,0-1.96-0.353-2.324-1.132c-0.233-0.501-0.275-2.146-0.275-7.132v-6.273c0-1.049-0.101-1.688-0.399-2.44
						c-0.919-2.302-3.387-3.155-5.358-3.155c-3.021,0-5.935,1.597-7.498,3.816v-3.5c-1.609,0.137-5.574,0.351-6.881,0.398v1.164
						c2.104,0,2.087,0.554,2.342,1.092c0.183,0.392,0.474,1.075,0.474,8.478c0,1.653,0,6.679-0.323,7.457
						c-0.216,0.548-0.631,1.228-2.731,1.228v1.025c1.093,0,3.126-0.071,4.915-0.071c1.997-0.01,4.003,0.061,5.127,0.071V91.82
						c-1.322,0-2.38-0.264-2.7-1.085c-0.233-0.83-0.233-4.307-0.233-7.543v-6.267c2.462-2.904,4.032-2.741,5.229-2.741
						C273.842,74.183,274.879,75.01,275.309,75.695z">
      </path>
      <path d="M296.012,89.878c-1.382,0.958-2.039,1.201-2.76,1.201c-2.248,0-2.612-2.05-2.612-4.612c0,0,0-9.151,0.089-12.304h4.323
						v-1.79h-4.323l0.091-5.02c-1.116,0.316-2.886,0.611-4.085,0.851c0,0-0.024,1.716-0.06,4.181l-2.338,0.661v1.116h2.318
						c-0.052,4.311-0.113,9.951-0.113,13.31c0,2.93,1.354,5.897,4.874,5.897c1.795,0,3.786-1.226,4.989-2.148L296.012,89.878z">
      </path>
      <path d="M310.855,77.435c0.029-2.401-0.996-4.095-3.917-4.095c-2.278,0-3.843,1.009-3.866,2.743
						c-0.016,1.782,2.322,2.791,4.664,4.199c3.988,2.377,5.795,4.062,5.768,6.667c-0.044,3.792-4.127,6.439-8.373,6.439
						c-2.423,0-4.46-0.786-5.952-1.74l0.038-2.195c0.01-0.584-0.071-1.641-0.111-2.874h1.093c-0.042,3.745,2.486,5.248,5.229,5.248
						c2.415,0,4.121-1.229,4.157-3.375c0.018-2.374-2.594-3.232-5.398-4.877c-2.957-1.734-4.978-3.381-4.942-6.441
						c0.044-3.561,4.432-5.259,7.621-5.259c1.009,0,1.849,0.119,2.427,0.251c1.033,0.226,2.423,0.738,2.743,1.007
						c-0.077,0.708-0.145,3.731-0.097,4.303H310.855z">
      </path>
     </g>
    </g>
    <g>
     <path fill="#008061" d="M61.49,72.681l2.565,1.639c1.975-2.985,5.776-5.887,8.726-6.845l-0.349-3.179
					C68.28,65.563,63.893,68.999,61.49,72.681z">
     </path>
     <path fill="#008061" d="M56.241,70.634l2.953,1.037c3.833-6.227,10.167-10.788,17.154-12.098l-0.59-3.07
					C67.508,58.112,60.461,63.171,56.241,70.634z">
     </path>
     <path fill="#008061" d="M45.747,71.473l2.95-0.708C42.221,50.487,26.809,35.159,5.815,29.107l-0.762,3.005
					C25.646,37.862,40.058,53.646,45.747,71.473z">
     </path>
     <path fill="#008061" d="M28.799,71.651l3.013-0.851C26.839,60.111,16.909,52.623,5.302,50.529l-0.432,3.021
					C15.286,55.469,24.202,62.134,28.799,71.651z">
     </path>
     <path fill="#008061" d="M5.181,57.186l-0.447,3.048c7.333,1.069,13.725,5.21,17.721,11.425l2.817-1.283
					C20.814,63.199,13.546,58.409,5.181,57.186z">
     </path>
     <path fill="#008061" d="M7.543,64.268L7.165,67.32c4.278,1.124,8.076,3.702,10.791,7.292l2.589-1.5
					C17.347,68.698,12.736,65.559,7.543,64.268z">
     </path>
     <path fill="#008061" d="M52.761,65.559l-1.093-2.779c6.517-9.806,16.96-16.261,28.492-17.744l-0.772-3.054
					c-11.635,1.602-22.217,7.91-29.203,17.477l-1.283-2.569c7.24-9.911,17.885-16.647,29.707-18.874l-0.752-2.985
					c-12.063,2.324-22.97,9.042-30.598,18.925l-1.71-2.775c7.644-9.547,18.028-16.374,29.671-19.628l-1.006-2.965
					C62.31,31.954,51.672,38.87,43.724,48.508c0,0-1.619-2.159-1.627-2.173c8.013-9.763,18.689-17.195,30.569-21.354l-1.077-2.932
					c-3.606,1.267-7.106,2.833-10.463,4.651c1.825-3.83,4.042-7.559,6.631-10.697l-2.379-1.978
					c-3.654,4.444-6.611,9.943-8.797,15.358c-1.354,0.863-2.672,1.774-3.963,2.724c2.13-7.641,5.685-15.115,10.459-21.115
					l-2.585-1.738c-5.76,7.352-9.813,16.674-11.816,25.976c-1.191,1.013-2.352,2.064-3.476,3.155
					c1.329-10.491,5.712-21.364,10.395-28.929l-2.66-1.587c-4.987,8.112-10.185,20.569-11.198,34.117
					c-0.559,0.62-1.106,1.251-1.642,1.893c-0.311-0.37-0.629-0.736-0.949-1.101c0.471-13.561,4.577-27.166,11.896-38.247
					l-2.715-1.54C41.326,13.713,37.186,26.625,36.24,39.686c-0.242-0.242-2.554-2.479-2.554-2.479
					c1.048-12.367,4.609-24.262,10.354-34.216l-2.69-1.53c-5.616,9.768-9.22,21.294-10.516,33.33
					c-0.78-0.634-1.574-1.249-2.379-1.851c1.229-10.283,3.644-19.594,7.283-27.736l-2.606-1.728
					c-1.445,3.183-2.705,6.536-3.787,10.048c-1.245-2.494-2.698-4.866-4.353-7.094l-2.307,2.122
					c2.172,2.953,3.971,6.178,5.362,9.614c-0.472,1.857-0.898,3.753-1.275,5.687c-1.652-4.951-4.217-9.735-7.6-13.67l-2.288,2.098
					c4.211,5.032,7.472,12.041,8.812,18.022c-0.025,0.206-0.054,0.41-0.081,0.616c-1.094-0.736-2.208-1.447-3.338-2.122
					c-1.784-5.334-5.181-11.019-8.508-14.879l-2.097,2.33c2.443,2.884,4.549,6.358,6.291,10.174c-3.258-1.653-6.637-3.064-10.11-4.2
					l-0.757,3.008c19.585,6.509,36.898,22.092,44.033,45.127l2.545-0.106c4.64-9.197,13.171-15.576,23.081-17.558l-0.586-3.07
					C65.786,51.712,57.678,57.918,52.761,65.559z">
     </path>
     <path fill="#008061" d="M44.389,83.179c-0.15-1.635-0.245-6.975-0.285-8.678C38.875,55.408,24.433,40.205,2.914,35.83
					l-0.573,3.022c14.301,2.747,31.204,12.819,38.02,33.852l-1.802,0.629C33.124,56.972,18.611,45.015,1.586,42.825l-0.551,3.048
					c19.996,2.487,33.628,19.1,35.023,31.226c0.1,0.871,0.148,4.945-0.02,6.473c-0.346,3.163-1.464,3.634-2.157,4.038
					c-2.87,1.679-10.873,2.542-10.873,2.542v2.7c4.017-0.016,10.29-0.653,17.905-0.653c7.593,0,13.705,0.645,17.224,0.645v-2.692
					c0,0-6.378-1.128-10.874-2.538C44.777,86.572,44.623,85.733,44.389,83.179z">
     </path>
    </g>
   </g>
   <rect x="-69.761" y="-69.333" fill="none" width="566.571" height="233.632">
   </rect>
  </g>
  <g>
   <path d="M320.838,71.778c3.242,0,5.883,2.629,5.883,5.871s-2.641,5.887-5.883,5.887c-3.246,0-5.887-2.645-5.887-5.887
			S317.592,71.778,320.838,71.778z M320.838,82.562c2.656,0,4.813-2.237,4.813-4.913s-2.157-4.897-4.813-4.897
			c-2.66,0-4.818,2.221-4.818,4.897S318.178,82.562,320.838,82.562z M317.983,74.486h3.064c1.394,0,2.138,0.503,2.138,1.655
			c0,0.795-0.535,1.409-1.295,1.655c1.394,2.367,1.572,2.577,2.012,2.577v0.388h-1.283c-0.257,0-0.534-0.111-1.979-2.692h-0.646
			v1.624c0,0.519,0.194,0.681,0.744,0.681v0.388h-2.755v-0.388c0.55,0,0.744-0.162,0.744-0.681v-4.137
			c0-0.519-0.194-0.681-0.744-0.681V74.486z M320.09,77.597h0.617c0.665,0,1.216-0.372,1.216-1.441c0-0.942-0.503-1.199-1.231-1.199
			h-0.602V77.597z">
   </path>
  </g>
 </g>
</svg>