<?xml version="1.0" encoding="UTF-8"?> <svg xmlns="http://www.w3.org/2000/svg" width="69" height="31" viewBox="0 0 69 31" fill="none"><path d="M4.81689 17.564L1.17116 19.6702L1.27504 19.8496C1.46057 20.17 1.72711 20.436 2.04789 20.6208C2.36867 20.8057 2.7324 20.9029 3.10263 20.9027C3.47106 20.9031 3.83296 20.8053 4.15103 20.6194C4.63428 20.3399 4.98682 19.88 5.13115 19.3407C5.27549 18.8015 5.19983 18.2269 4.9208 17.7434L4.81689 17.564Z" fill="#FFD000"></path><path d="M9.42604 26.7823C9.1591 26.7108 8.88066 26.6927 8.60672 26.7292C8.33279 26.7657 8.06877 26.856 7.82984 26.9948C7.34659 27.2743 6.99409 27.7342 6.84975 28.2735C6.70541 28.8128 6.78105 29.3873 7.06008 29.8708L7.16399 30.0502L10.8097 27.944L10.7058 27.7646C10.5679 27.5244 10.3838 27.314 10.1642 27.1454C9.94452 26.9768 9.69365 26.8534 9.42604 26.7823Z" fill="#FFD000"></path><path d="M2.30927 23.8165C2.30927 23.2587 2.08803 22.7237 1.69405 22.3289C1.30008 21.934 0.765576 21.7116 0.20779 21.7103H0V25.9227H0.20779C0.765576 25.9215 1.30008 25.699 1.69405 25.3042C2.08803 24.9093 2.30927 24.3743 2.30927 23.8165Z" fill="#FFD000"></path><path d="M11.7778 21.7009C11.2192 21.7009 10.6834 21.9228 10.2885 22.3178C9.89346 22.7128 9.67157 23.2485 9.67157 23.8071C9.67157 24.3657 9.89346 24.9014 10.2885 25.2964C10.6834 25.6914 11.2192 25.9133 11.7778 25.9133H11.9856V21.7009H11.7778Z" fill="#FFD000"></path><path d="M4.15103 26.9947C3.66752 26.7157 3.09299 26.64 2.55371 26.7843C2.01444 26.9287 1.55453 27.2812 1.27504 27.7644L1.17116 27.9439L4.81689 30.0501L4.9208 29.8707C5.19983 29.3872 5.27549 28.8126 5.13115 28.2734C4.98682 27.7341 4.63428 27.2742 4.15103 26.9947Z" fill="#FFD000"></path><path d="M7.83928 20.6194C8.15735 20.8053 8.51922 20.9031 8.88765 20.9027C9.25807 20.9038 9.6222 20.807 9.94314 20.6221C10.2641 20.4372 10.5305 20.1707 10.7153 19.8496L10.8192 19.6702L7.17342 17.564L7.06951 17.7434C6.79048 18.2269 6.71482 18.8015 6.85916 19.3407C7.00349 19.88 7.35603 20.3399 7.83928 20.6194Z" fill="#FFD000"></path><path d="M8.64684 23.8166C8.65262 23.1335 8.87962 22.4707 9.29382 21.9276C8.61065 22.0166 7.91714 21.8789 7.31983 21.5356C6.72413 21.1884 6.25817 20.6561 5.99282 20.0197C5.72535 20.6562 5.25787 21.1884 4.66108 21.5356C4.06352 21.8783 3.37023 22.0159 2.68709 21.9276C3.10038 22.4712 3.32727 23.1337 3.33406 23.8166C3.32866 24.4981 3.10523 25.1601 2.69651 25.7055C3.37651 25.6207 4.06572 25.7582 4.66108 26.0975C5.25787 26.4447 5.72535 26.9769 5.99282 27.6134C6.25697 26.9763 6.72324 26.4436 7.31983 26.0975C7.9191 25.7548 8.61388 25.6172 9.29854 25.7055C8.88296 25.1628 8.65432 24.5001 8.64684 23.8166ZM5.99282 25.068C5.66091 25.068 5.34259 24.9362 5.1079 24.7015C4.87321 24.4668 4.74135 24.1485 4.74135 23.8166C4.74135 23.4846 4.87321 23.1663 5.1079 22.9316C5.34259 22.6969 5.66091 22.5651 5.99282 22.5651C6.32472 22.5651 6.64301 22.6969 6.8777 22.9316C7.1124 23.1663 7.24425 23.4846 7.24425 23.8166C7.24176 24.1468 7.10881 24.4627 6.87439 24.6954C6.63996 24.928 6.32309 25.0586 5.99282 25.0586V25.068Z" fill="#F37830"></path><path d="M1.15231 1.14865H6.14866C8.98214 1.14865 10.3281 2.39539 10.3281 4.35521C10.3281 5.77195 9.61969 6.79672 8.16517 6.98561C8.52931 6.99172 8.88839 7.07206 9.22043 7.22169C9.55246 7.37133 9.85046 7.58713 10.0962 7.85589C10.342 8.12465 10.5304 8.44073 10.6498 8.78479C10.7693 9.12884 10.8172 9.49365 10.7909 9.85688C10.7909 12.0198 9.60079 13.3987 6.5973 13.3987H1.15231V1.14865ZM6.34703 6.53699C8.08017 6.53699 8.86408 5.77195 8.86408 4.55827C8.86408 3.3446 8.06126 2.52762 6.12033 2.52762H3.18297C3.05772 2.52762 2.93761 2.57737 2.84905 2.66593C2.76048 2.75449 2.71072 2.87462 2.71072 2.99987V6.06474C2.71072 6.18999 2.76048 6.3101 2.84905 6.39866C2.93761 6.48723 3.05772 6.53699 3.18297 6.53699H6.34703ZM6.53118 12.0387C8.6374 12.0387 9.25606 11.1414 9.25606 9.72466C9.25606 8.49209 8.24545 7.69398 6.45564 7.69398H3.18297C3.05772 7.69398 2.93761 7.74375 2.84905 7.83231C2.76048 7.92087 2.71072 8.04098 2.71072 8.16623V11.5664C2.71072 11.6917 2.76048 11.8118 2.84905 11.9004C2.93761 11.9889 3.05772 12.0387 3.18297 12.0387H6.53118Z" fill="#83B62E"></path><path d="M11.9101 10.7731C11.9101 9.46972 12.8262 8.35049 15.2866 8.35049H18.5593C18.6846 8.35049 18.8047 8.30073 18.8932 8.21217C18.9818 8.1236 19.0316 8.00349 19.0316 7.87824V7.67989C19.0316 6.09315 18.0871 5.31866 16.1981 5.31866C14.5027 5.31866 13.5677 5.95147 13.5677 7.20765C13.5605 7.3193 13.5605 7.4313 13.5677 7.54295H12.1887C12.1656 7.35807 12.153 7.17201 12.1509 6.98569C12.1509 5.1581 13.7188 4.05777 16.217 4.05777C18.9182 4.05777 20.4672 5.39895 20.4672 7.80268V13.4271H19.0316C19.0316 12.9974 19.0882 12.1379 19.1071 11.2454C18.7907 12.6621 17.6337 13.5735 15.3291 13.5735C13.2324 13.5688 11.9101 12.5063 11.9101 10.7731ZM19.0316 9.55944V9.43194H15.3952C13.8888 9.43194 13.289 9.88057 13.289 10.7731C13.289 11.6657 14.1485 12.3032 15.603 12.3032C17.7093 12.3032 19.0316 11.2406 19.0316 9.55944Z" fill="#83B62E"></path><path d="M22.2948 4.20884H23.7871L23.7493 6.65508C23.8915 5.91028 24.2941 5.24039 24.885 4.76536C25.476 4.29032 26.2168 4.04115 26.9748 4.06245C28.7835 4.06245 29.9782 5.00693 30.2002 6.48506C30.5166 5.01165 31.7114 4.06245 33.4445 4.06245C35.5319 4.06245 36.7502 5.4414 36.7502 7.58541V13.4271H35.258V7.9018C35.258 6.37172 34.5118 5.40363 33.0384 5.40363C31.343 5.40363 30.2616 6.65508 30.2616 8.78019V13.4271H28.7693V7.84986C28.7693 6.35756 28.0043 5.40834 26.5308 5.40834C24.8355 5.40834 23.754 6.67869 23.754 8.85575V13.4271H22.2617L22.2948 4.20884Z" fill="#83B62E"></path><path d="M40.0796 11.2973C40.0796 12.0245 40.1126 12.936 40.1504 13.4224H38.6581V0.501709H40.1504V4.92666C40.1504 5.29973 40.1504 6.04589 40.1126 6.49452C40.5235 5.02111 41.8694 4.07189 43.8434 4.07189C46.4927 4.07189 48.0936 5.86171 48.0936 8.65741C48.0936 11.6609 46.436 13.5782 43.8434 13.5782C41.7985 13.5688 40.4715 12.6762 40.0796 11.2973ZM46.6249 8.70463C46.6249 6.70703 45.4679 5.42251 43.5695 5.42251C41.4821 5.42251 40.1362 6.7637 40.1362 8.85576V9.328C40.1362 11.0989 41.4632 12.237 43.5128 12.237C45.4159 12.2276 46.6249 10.8486 46.6249 8.70463Z" fill="#83B62E"></path><path d="M49.2364 8.83688C49.2364 5.92784 51.0452 4.06247 53.8975 4.06247C56.7499 4.06247 58.5586 5.92784 58.5586 8.83688C58.5586 11.7459 56.7499 13.5593 53.8975 13.5593C51.0452 13.5593 49.2364 11.7223 49.2364 8.83688ZM57.0663 8.83688C57.0663 6.74482 55.8385 5.40365 53.8975 5.40365C51.9566 5.40365 50.7288 6.74482 50.7288 8.83688C50.7288 10.9289 51.9566 12.2276 53.8975 12.2276C55.8385 12.2276 57.0663 10.9053 57.0663 8.83688Z" fill="#83B62E"></path><path d="M59.6778 8.83688C59.6778 5.92784 61.4866 4.06247 64.3389 4.06247C67.1913 4.06247 69 5.92784 69 8.83688C69 11.7459 67.1913 13.5593 64.3389 13.5593C61.4866 13.5593 59.6778 11.7223 59.6778 8.83688ZM67.5077 8.83688C67.5077 6.74482 66.2751 5.40365 64.3389 5.40365C62.4027 5.40365 61.1701 6.74482 61.1701 8.83688C61.1701 10.9289 62.398 12.2276 64.3389 12.2276C66.2799 12.2276 67.5077 10.9053 67.5077 8.83688Z" fill="#83B62E"></path><path d="M16.1697 17.6773H17.7565V22.4281C17.7565 22.5534 17.8062 22.6735 17.8948 22.762C17.9833 22.8506 18.1034 22.9004 18.2287 22.9004H24.8165C24.9418 22.9004 25.0619 22.8506 25.1505 22.762C25.239 22.6735 25.2888 22.5534 25.2888 22.4281V17.6773H26.8567V29.9557H25.2888V24.6854C25.2888 24.5602 25.239 24.4401 25.1505 24.3515C25.0619 24.263 24.9418 24.2132 24.8165 24.2132H18.2287C18.1034 24.2132 17.9833 24.263 17.8948 24.3515C17.8062 24.4401 17.7565 24.5602 17.7565 24.6854V29.9557H16.1886L16.1697 17.6773Z" fill="#83B62E"></path><path d="M36.9391 25.6347H29.7232C29.8177 27.5945 31.0124 28.8224 32.8212 28.8224C34.3654 28.8224 35.4327 28.0384 35.5602 26.8295H36.9391C36.8494 28.8224 35.2249 30.0927 32.8022 30.0927C30.0254 30.0927 28.2356 28.2651 28.2356 25.4128C28.2356 22.4659 30.0066 20.5817 32.7645 20.5817C35.3949 20.5817 36.9391 22.2062 36.9391 24.9452V25.6347ZM35.5602 24.4399C35.5602 22.8201 34.5543 21.852 32.8022 21.852C31.1588 21.852 30.0585 22.7965 29.7799 24.5533H35.5602V24.4399Z" fill="#83B62E"></path><path d="M38.337 27.2923C38.337 25.9889 39.2531 24.8697 41.7135 24.8697H44.9909C45.1162 24.8697 45.2363 24.8199 45.3249 24.7313C45.4135 24.6428 45.4632 24.5227 45.4632 24.3974V24.1991C45.4632 22.6123 44.5187 21.8378 42.6297 21.8378C40.9343 21.8378 40.004 22.4706 40.004 23.7268C39.9968 23.8385 39.9968 23.9505 40.004 24.0621H38.6203C38.5988 23.8771 38.5877 23.6911 38.5873 23.5049C38.5873 21.6773 40.1504 20.5769 42.6486 20.5769C45.3546 20.5769 46.8988 21.9181 46.8988 24.3266V29.9557H45.4112C45.4112 29.526 45.4632 28.6712 45.4821 27.774C45.1657 29.1907 44.0087 30.1069 41.7041 30.1069C39.664 30.0927 38.337 29.0112 38.337 27.2923ZM45.4632 26.0833V25.9511H41.8411C40.3299 25.9511 39.7301 26.4233 39.7301 27.2923C39.7301 28.1612 40.5896 28.8224 42.0441 28.8224C44.1362 28.8224 45.4632 27.7598 45.4632 26.0833Z" fill="#83B62E"></path><path d="M48.8162 17.0209H50.3084V29.9557H48.8162V17.0209Z" fill="#83B62E"></path><path d="M52.9153 26.565V22.5084C52.9153 22.3832 52.8655 22.263 52.7769 22.1745C52.6884 22.0859 52.5683 22.0362 52.443 22.0362H51.3899V20.7328H52.6178C52.9153 20.7328 53.0286 20.5816 53.0664 20.0952L53.1419 18.6407H54.4076V20.2605C54.4076 20.3858 54.4573 20.5059 54.5459 20.5944C54.6344 20.683 54.7546 20.7328 54.8798 20.7328H57.7463V22.0362H54.8798C54.7546 22.0362 54.6344 22.0859 54.5459 22.1745C54.4573 22.263 54.4076 22.3832 54.4076 22.5084V26.4753C54.4076 27.892 54.8562 28.709 56.2351 28.709C56.7137 28.7136 57.1905 28.6516 57.6519 28.5248V29.7905C57.1468 29.9581 56.6159 30.0349 56.084 30.0171C53.8692 30.0171 52.9153 28.6004 52.9153 26.565Z" fill="#83B62E"></path><path d="M59.2386 17.0209H60.7309V21.2711C60.7309 21.7764 60.6931 22.8767 60.6931 23.212C61.1984 21.6064 62.483 20.5627 64.6836 20.5627C67.111 20.5627 68.5419 21.9795 68.5419 24.1613V29.9557H67.0543V24.5107C67.0543 22.9476 66.157 21.937 64.1831 21.937C62.0768 21.937 60.7121 23.2829 60.7121 25.611V29.9557H59.2197L59.2386 17.0209Z" fill="#83B62E"></path></svg> 