<svg version="1.1" id="Layer_1" xmlns="http://www.w3.org/2000/svg" xmlns:xlink="http://www.w3.org/1999/xlink" x="0px" y="0px" viewBox="0 0 316 104" style="enable-background:new 0 0 316 104;" xml:space="preserve">
 <style type="text/css">
  .st0{fill:#E9002B;}
 </style>
 <g>
  <path class="st0" d="M80.3,36.4c1.3-0.9,2.6-1.7,3.9-2.6c1,1.1,2,2.1,2.8,3.2c-1.3,0.7-2.6,1.6-3.8,2.3
		C82.3,38.3,81.3,37.3,80.3,36.4 M75,31.9c1.2-1,2.5-2,4-3c1.1,1,2.1,1.9,3.1,2.8c-1.4,0.9-2.8,1.8-4,2.8
		C77.2,33.6,76.1,32.8,75,31.9 M171.3,21.5l-0.2-0.2c-32.2,1.3-62.4,11.7-82.7,24.5c-0.9-1.4-1.8-2.6-2.9-3.9
		c18.2-11.5,43.7-21.2,65.3-24.1l-0.3-0.2c-23.2,2.4-45.8,9.6-62,18.6c-0.6-1.2-1.4-2.4-2.3-3.5c14.1-8.3,32.3-15,49.6-18.3
		l-0.2-0.2c-20.2,3.1-38.5,8.9-51.2,16.3c-0.9-1-1.9-2-3-3c1.3-0.8,2.7-1.6,4.1-2.4c0.6,0.7,1.2,1.3,1.8,2l0.7-0.7
		c-0.4-0.7-0.8-1.3-1.3-2c10.4-5.4,23.3-9.7,33.3-11.7l-0.3-0.2c-10.3,1.9-23.9,5.1-34.3,10.2C76.8,12.2,59.4,5,34.1,0l-0.2,0.1
		c22.9,5.3,39.7,13.3,50,23.2c-1.5,0.8-2.9,1.6-4.2,2.5C67.5,15.6,46,6.4,17.7,2.2l-0.2,0.1c25,4.6,45.9,13.9,59.9,25.2
		c-1.4,1.1-2.6,2.2-3.7,3.4C58,19.6,33.3,10.1,0.2,5.7L0,5.8c27.4,4.5,55.9,14.4,75.2,31c-2.5,2.2-4.6,4.6-6,7l0.8,0.9
		c2.1-2.1,4.5-4.1,7.2-6.1c1,0.9,2,1.8,2.9,2.8c-6.6,4.7-11.4,9.7-13.6,14.6l0.9,0.7c3.7-4.4,8.9-8.7,15-12.9
		c1.1,1.3,2.2,2.5,3.2,3.8C73.1,56,64.8,65.3,63,73.9l1,0.7c5.3-9.1,13.7-17.1,23.8-24c1.6,2.3,3,4.6,4.3,7.1l0.9-0.6
		c-0.5-2.7-1.4-5.3-2.8-8C115.6,32.5,150.2,22.8,171.3,21.5">
  </path>
  <path d="M152.6,82h5.1v21.5h-5.1V82z M152.6,72.9h5.2v5.1h-5.2V72.9z">
  </path>
  <rect x="204.7" y="72.2" width="5.1" height="31.4">
  </rect>
  <polygon points="215.3,72.2 217.9,72.2 217.9,85.6 229.1,85.6 229.1,72.2 231.7,72.2 231.7,103.6 229.1,103.6 229.1,87.9 
		217.9,87.9 217.9,103.6 215.3,103.6 	">
  </polygon>
  <path d="M248.4,91.3c0-4.6-1.8-7.3-4.7-7.3c-3.2,0-4.7,3.1-4.7,7.3H248.4z M239,93.6c0,8,5.1,8.1,6,8.1c1.4,0,3.3-0.7,4.5-1.8
		l0.1,2.7c-1,0.6-2.4,1.2-4.9,1.2c-8.3,0-8.5-8.9-8.5-11.1c0-7.4,2.7-11.1,7.4-11.1c5.2,0,7.4,4.2,7.4,11.9H239z">
  </path>
  <rect x="274.1" y="72.2" width="2.5" height="31.4">
  </rect>
  <path d="M285.5,77v5h4.3v2.1h-4.3v14.2c0,1.7,0.2,3.4,2.4,3.4c1,0,1.5-0.2,1.9-0.3v2.2c-0.2,0.1-0.9,0.3-2.4,0.3
		c-3.6,0-4.4-2.4-4.4-4.9V84.1h-3.2V82h3.2v-4.3L285.5,77z">
  </path>
  <path d="M107.6,93h-1.8c-2.4,0-5.5,0.7-5.5,4.1c0,2,1.3,3.3,3.2,3.3c2.7,0,4.1-2.3,4.1-5V93z M97.6,83.3c1.4-0.7,3.4-1.6,6.3-1.6
		c6.3,0,8.4,3.2,8.4,8.1v9.9c0,1.5,0.2,3,0.3,3.8H108c-0.2-0.8-0.3-1.9-0.3-2.4h-0.1c-0.7,0.8-2.5,2.8-5.8,2.8
		c-3.7,0-6.3-2.3-6.3-6.3c0-5.8,5-7.3,10.2-7.3h1.9v-0.8c0-2.1-1-4.1-3.9-4.1c-2.5,0-4.8,1.2-5.8,2.1L97.6,83.3z">
  </path>
  <path d="M195,93h-1.9c-2.4,0-5.5,0.7-5.5,4.1c0,2,1.3,3.3,3.2,3.3c2.7,0,4.1-2.3,4.1-5V93z M185,83.3c1.4-0.7,3.4-1.6,6.3-1.6
		c6.3,0,8.4,3.2,8.4,8.1v9.9c0,1.5,0.2,3,0.3,3.8h-4.5c-0.3-0.8-0.3-1.9-0.3-2.4h-0.1c-0.7,0.8-2.5,2.8-5.8,2.8
		c-3.7,0-6.4-2.3-6.4-6.3c0-5.8,5.1-7.3,10.2-7.3h2v-0.8c0-2.1-1-4.1-3.9-4.1c-2.5,0-4.8,1.2-5.8,2.1L185,83.3z">
  </path>
  <path d="M117.3,85.6c0-1.4,0-2.6-0.2-3.6h4.6c0,1.3,0.1,1.7,0.1,3h0.1c0.4-0.9,1.4-3.3,5.4-3.3c0.3,0,0.6,0.1,0.9,0.1v4.8
		c-0.2,0-0.7-0.2-1.4-0.2c-2.1,0-4.4,1.3-4.4,5.3v11.8h-5.1V85.6z">
  </path>
  <path d="M138.4,100.1c3,0,4-3.3,4-7.4c0-4.2-1.2-7.2-3.9-7.2c-2.8,0-3.8,2.8-3.8,7.1C134.7,97.6,135.5,100.1,138.4,100.1
		 M147.5,72.2v27.7c0,1.6,0,2.9,0.2,3.7h-4.8c-0.1-0.6-0.2-1.7-0.2-2.8h-0.1c-0.3,0.6-1.6,3.1-5.6,3.1c-5.2,0-7.4-5.1-7.4-11.1
		c0-7,2.6-11.1,7.8-11.1c3.4,0,4.6,2.1,4.9,2.5h0.1v-12H147.5z">
  </path>
  <path d="M92.7,103c-0.5,0.2-2.1,1-6.2,1c-8.7,0-13.1-6.5-13.1-15c0-8.5,4.5-15,13-15c3.7,0,5.7,0.8,6.3,1.1l-0.3,4.9
		c-0.5-0.3-2-1.5-5.4-1.5c-4.3,0-8,3-8,10.6c0,7.6,3.7,10.6,8,10.6c2.5,0,4.2-0.6,5.4-1.5L92.7,103z">
  </path>
  <path d="M162.9,85.6c0-1.4,0-2.6-0.2-3.6h4.8c0,0.7,0.1,2.2,0.1,2.7h0.1c0.4-0.7,1.8-3,5.5-3c4.4,0,6.3,2.9,6.3,7.1v14.8h-5.1V89.6
		c0-2.6-1.5-3.7-3.3-3.7c-1.7,0-3.3,0.9-3.3,3.7v13.9h-5.1V85.6z">
  </path>
  <path d="M293.3,72.2h2.5V84h0c0.6-0.8,1.9-2.3,5.1-2.3c3.9,0,6.1,3.3,6.1,6.3v15.5h-2.5V88.6c0-2.9-1.6-4.8-4.3-4.8
		c-2.7,0-4.4,1.8-4.4,4.8v14.9h-2.5V72.2z">
  </path>
  <path d="M264,92.7c-4.4,0-7.1,1.3-7.1,4.7c0,2.1,1.3,4.1,4.1,4.1c1.1,0,5-0.5,5-6.3v-2.5H264z M266,88.8c0-3-1-4.9-4.6-4.9
		c-2.8,0-4.8,2-5.1,2.2l-0.4-2.6c1.2-0.8,2.9-1.9,5.7-1.9c5.9,0,6.9,4.4,6.9,6.6v10.4c0,1.6,0.1,3.2,0.2,4.8h-2.4l-0.1-2.6h-0.1
		c-0.5,0.7-1.7,2.9-5.7,2.9c-4,0-6.2-2.5-6.2-6.4c0-5.5,4.6-6.9,10-6.9h1.8V88.8z">
  </path>
  <polygon points="308.4,72.9 307,72.9 307,72.2 310.6,72.2 310.6,72.9 309.2,72.9 309.2,77 308.4,77 	">
  </polygon>
  <path d="M315,75c0-0.6-0.1-1.4-0.1-2h0c-0.2,0.6-0.3,1.2-0.6,1.8l-0.7,2.1h-0.7l-0.6-2.1c-0.2-0.6-0.3-1.3-0.5-1.9h0
		c0,0.6,0,1.4-0.1,2.1l-0.1,1.9H311l0.3-4.8h1.1l0.6,1.9c0.2,0.6,0.3,1.1,0.4,1.7h0c0.1-0.5,0.3-1.1,0.5-1.7l0.6-1.9h1.1L316,77
		h-0.8L315,75z">
  </path>
 </g>
</svg>