<svg fill="none" height="16px" viewBox="0 0 180 16" width="180px" xmlns="http://www.w3.org/2000/svg"><path clip-rule="evenodd" d="M93.2898 3.01312C92.7193 1.70685 93.3179 0 93.4343 0H93.4362C93.4546 0.00148204 93.4672 0.0479948 93.4862 0.118199C93.5243 0.258687 93.5881 0.494048 93.775 0.653273C94.2222 1.0271 94.4487 1.10867 94.7804 1.22812C94.8757 1.26243 94.9796 1.29986 95.1 1.34824C96.3198 1.8402 96.4199 3.31306 96.4684 4.02606C96.4689 4.03423 96.4695 4.04231 96.47 4.05029C96.5118 4.63556 96.3875 4.62402 95.9108 4.57975C95.8373 4.57292 95.7555 4.56532 95.6645 4.55901C95.2245 4.53121 93.8598 4.31994 93.2898 3.01312ZM96.6765 6.75038C96.7449 5.14596 97.5329 3.64738 98.8395 2.63663C98.8942 2.59527 98.9596 2.57501 99.0247 2.57501C99.106 2.57501 99.1869 2.60668 99.2458 2.66802C99.3429 2.78555 99.3288 2.95501 99.2126 3.056C98.0255 3.97004 97.3104 5.3294 97.25 6.78461L97.268 6.76464C98.6006 5.20416 100.629 4.94741 101.764 5.84005C102.648 6.53585 102.953 7.57484 102.957 8.48888V8.52825C102.956 8.75134 102.937 8.96644 102.905 9.16699C102.6 11.2039 100.987 12.6414 96.9543 15.634C92.9216 12.6414 91.2996 11.2039 91.0009 9.16699C90.9704 8.95674 90.9516 8.73336 90.9507 8.50286V8.46691C90.9543 7.56086 91.236 6.55325 92.145 5.84005C93.2983 4.93599 95.4551 5.20986 96.6765 6.75038Z" fill="url(#paint0_linear_3970_75581)" fill-rule="evenodd"></path><path clip-rule="evenodd" d="M176.854 3.76953H178.129V3.898H177.568V5.35256H177.415V3.898H176.854V3.76953Z" fill="#0A0B09" fill-rule="evenodd"></path><path clip-rule="evenodd" d="M178.275 3.76953H178.501L179.057 5.15737L179.611 3.76953H179.836V5.35256H179.684V3.98457H179.679L179.129 5.35256H178.985L178.434 3.98457H178.429V5.35256H178.275V3.76953Z" fill="#0A0B09" fill-rule="evenodd"></path><path clip-rule="evenodd" d="M175.862 14.7415C175.574 14.5331 175.401 14.2088 175.392 13.8614V5.0816C175.401 4.7342 175.574 4.41015 175.862 4.20156C176.019 4.12459 176.081 3.93935 176.001 3.78771C175.947 3.6838 175.836 3.61838 175.716 3.61915H172.907C172.731 3.61812 172.588 3.75513 172.587 3.92524C172.586 4.04403 172.656 4.15256 172.766 4.20413C173.045 4.40913 173.215 4.72291 173.231 5.06107V8.71977H167.739V5.10213C167.741 4.74729 167.915 4.41426 168.209 4.20156C168.314 4.14948 168.381 4.04454 168.381 3.9296C168.379 3.75923 168.236 3.62171 168.06 3.62171H165.254C165.078 3.62171 164.934 3.75923 164.933 3.9296C164.933 4.04865 165.005 4.15666 165.116 4.20669C165.388 4.40785 165.555 4.71316 165.575 5.04311V13.9025C165.557 14.2332 165.39 14.5396 165.119 14.7415C165.006 14.7918 164.932 14.9006 164.93 15.0211C164.93 15.1915 165.072 15.3303 165.249 15.3316H168.07C168.247 15.3303 168.389 15.1915 168.389 15.0211C168.389 14.9085 168.324 14.8051 168.222 14.7517C167.928 14.539 167.754 14.2058 167.752 13.8512V10.1925H173.244V13.882C173.227 14.223 173.053 14.5383 172.769 14.7415C172.657 14.7915 172.586 14.8995 172.586 15.0186C172.586 15.1889 172.728 15.3275 172.904 15.329H175.713C175.889 15.3275 176.032 15.1889 176.032 15.0186C176.033 14.9029 175.967 14.7961 175.862 14.7415Z" fill="#252623" fill-rule="evenodd"></path><path clip-rule="evenodd" d="M129.444 13.2072C129.346 13.2082 129.254 13.2526 129.194 13.3278C128.977 13.6169 128.634 13.7929 128.265 13.805H123.999V10.213H128.119C128.356 10.2115 128.548 10.0265 128.549 9.79736V9.13797C128.548 8.90937 128.356 8.7249 128.119 8.7249H123.999V5.16113H128.21C128.564 5.17524 128.894 5.34176 129.109 5.61526C129.201 5.75689 129.394 5.79999 129.541 5.71122C129.633 5.65503 129.689 5.55651 129.688 5.45105V4.13228C129.688 3.84877 129.45 3.61914 129.157 3.61914H121.515C121.337 3.62248 121.196 3.7641 121.199 3.93549C121.202 4.04659 121.265 4.14793 121.366 4.20156C121.663 4.41631 121.838 4.7537 121.839 5.11238V13.8358C121.838 14.1927 121.666 14.5288 121.374 14.7466C121.265 14.7977 121.196 14.9041 121.196 15.0211C121.196 15.1915 121.338 15.33 121.515 15.3316H129.231C129.525 15.3316 129.762 15.102 129.762 14.8184V13.5022C129.757 13.3368 129.615 13.2056 129.444 13.2072Z" fill="#252623" fill-rule="evenodd"></path><path clip-rule="evenodd" d="M118.192 4.20156C118.348 4.12459 118.411 3.93934 118.331 3.78771C118.277 3.6838 118.166 3.61863 118.046 3.61914H115.24C115.063 3.61914 114.92 3.75667 114.918 3.92703C114.92 4.04428 114.989 4.15076 115.096 4.20412C115.375 4.40912 115.545 4.72291 115.561 5.06107V8.71977H110.068V5.10212C110.073 4.74805 110.247 4.4158 110.539 4.20156C110.645 4.14999 110.712 4.04454 110.711 3.92959C110.711 3.75949 110.568 3.62171 110.393 3.62171H107.584C107.408 3.62222 107.266 3.76026 107.266 3.93036C107.267 4.04813 107.336 4.15538 107.446 4.20669C107.718 4.40758 107.887 4.7129 107.908 5.04311V13.9027C107.886 14.2342 107.717 14.5403 107.443 14.7415C107.329 14.7907 107.255 14.9003 107.255 15.0211C107.255 15.1915 107.397 15.3303 107.573 15.3316H110.39C110.566 15.3303 110.708 15.1915 110.708 15.0211C110.708 14.908 110.643 14.8041 110.539 14.7517C110.247 14.5375 110.073 14.2052 110.068 13.8512V10.1925H115.561V13.882C115.547 14.2201 115.379 14.5347 115.101 14.7415C114.989 14.7905 114.916 14.899 114.916 15.0186C114.917 15.1895 115.06 15.3275 115.237 15.329H118.043C118.22 15.329 118.364 15.19 118.364 15.0186C118.364 14.9023 118.298 14.7959 118.192 14.7415C117.905 14.5326 117.733 14.2083 117.724 13.8614V5.0816C117.733 4.73471 117.905 4.41066 118.192 4.20156Z" fill="#252623" fill-rule="evenodd"></path><path clip-rule="evenodd" d="M153.113 13.1815H153.111C153.013 13.1826 152.922 13.2272 152.864 13.3021C152.648 13.5923 152.304 13.7686 151.935 13.7793H147.871V5.11495C147.872 4.7578 148.044 4.42118 148.338 4.20412C148.495 4.12407 148.555 3.93626 148.472 3.78463C148.418 3.68482 148.311 3.62145 148.195 3.61914H145.386C145.209 3.62094 145.067 3.76154 145.068 3.93318C145.07 4.04505 145.133 4.14768 145.235 4.20156C145.53 4.41861 145.704 4.75626 145.705 5.11495V13.8386C145.703 14.1927 145.531 14.5262 145.24 14.7415C145.083 14.8215 145.023 15.0093 145.106 15.161C145.161 15.2615 145.268 15.3249 145.386 15.3265H152.901C153.194 15.3265 153.432 15.0968 153.432 14.8133V13.4894C153.432 13.3193 153.289 13.1815 153.113 13.1815Z" fill="#252623" fill-rule="evenodd"></path><path clip-rule="evenodd" d="M162.707 3.61914H154.003C153.709 3.61914 153.472 3.84903 153.472 4.13228V5.41513C153.471 5.58524 153.612 5.72379 153.788 5.72482C153.909 5.72533 154.02 5.66016 154.074 5.55625C154.278 5.33252 154.563 5.19192 154.87 5.1637H157.259V13.8589C157.253 14.2076 157.079 14.5337 156.79 14.7415C156.683 14.7938 156.615 14.8998 156.615 15.016C156.615 15.1864 156.757 15.3252 156.933 15.3265H159.742C159.918 15.3252 160.06 15.1864 160.06 15.016C160.058 14.9111 160.001 14.8143 159.909 14.7594C159.626 14.5498 159.453 14.2291 159.439 13.8845V5.1637H161.828C162.134 5.19064 162.418 5.32687 162.624 5.54599C162.676 5.654 162.788 5.72302 162.911 5.72302C163.087 5.72302 163.23 5.58524 163.23 5.41513V4.13228C163.23 3.85185 162.997 3.6235 162.707 3.61914Z" fill="#252623" fill-rule="evenodd"></path><path clip-rule="evenodd" d="M135.414 11.2482L137.389 6.56067L139.37 11.2482H135.414ZM143.378 14.7709C143.124 14.6457 142.909 14.4571 142.757 14.2247L138.358 4.06424C138.295 3.93646 138.195 3.82819 138.072 3.75122H138.048C137.979 3.71017 137.904 3.68066 137.825 3.66399H137.803C137.671 3.63551 137.536 3.62063 137.4 3.62063C137.158 3.60908 136.917 3.66501 136.707 3.78201C136.592 3.85539 136.501 3.95725 136.442 4.07707L132.303 13.8344C132.168 14.2437 131.866 14.5816 131.467 14.7709C131.317 14.8633 131.273 15.0549 131.369 15.1997C131.426 15.2861 131.523 15.3397 131.629 15.3433H134.363C134.537 15.339 134.675 15.2007 134.674 15.0326C134.671 14.929 134.615 14.8328 134.525 14.7761V14.7709C134.305 14.6324 134.119 14.4992 134.196 14.14L134.791 12.7184H140.001L140.639 14.2221C140.663 14.512 140.492 14.6324 140.291 14.7584C140.156 14.8189 140.084 14.9626 140.118 15.1022C140.156 15.2456 140.291 15.3456 140.445 15.3433H143.224C143.375 15.3449 143.508 15.2479 143.548 15.107C143.577 14.9708 143.507 14.8325 143.378 14.7709Z" fill="#252623" fill-rule="evenodd"></path><path clip-rule="evenodd" d="M6.87773 4.77285C7.01501 4.77645 7.14804 4.72857 7.24948 4.63899C7.35675 4.54684 7.41517 4.41248 7.4088 4.27348C7.40933 4.25675 7.40933 4.24002 7.40827 4.22328C7.39048 3.95661 7.15282 3.75429 6.87773 3.77154H0.531465C0.514205 3.77051 0.496945 3.77025 0.479686 3.77077C0.204061 3.78132 -0.0104902 4.00629 0.000396658 4.27348V15.0202C0.000396658 15.1538 0.0569554 15.2812 0.157062 15.3728C0.256106 15.4688 0.391528 15.5211 0.531465 15.517H6.87773C7.01501 15.5206 7.14804 15.4727 7.24948 15.3831C7.34799 15.2912 7.4011 15.163 7.39552 15.0305C7.39765 14.8987 7.34507 14.7715 7.24948 14.6778C7.15282 14.58 7.0174 14.5272 6.87773 14.5337H1.09174V9.96729H6.10768C6.24523 9.97013 6.37853 9.92122 6.47943 9.83087C6.57954 9.73975 6.6337 9.61104 6.62813 9.47822C6.63158 9.34334 6.57794 9.2131 6.47943 9.11786C6.38118 9.02261 6.24656 8.97113 6.10768 8.97628H1.09174V4.77285H6.87773Z" fill="#252623" fill-rule="evenodd"></path><path clip-rule="evenodd" d="M19.2939 3.75384C19.1973 3.7559 19.1041 3.78833 19.0284 3.8465C18.9384 3.91086 18.864 3.99348 18.8106 4.08847L14.7055 13.7952L10.5393 4.1245C10.471 3.89747 10.252 3.74431 10.0082 3.75384C9.87967 3.75384 9.7562 3.80197 9.663 3.88769C9.55944 3.97701 9.50208 4.10597 9.50633 4.24034C9.50261 4.333 9.52094 4.42541 9.55944 4.51061L14.1691 15.2161C14.2097 15.3119 14.279 15.3935 14.3683 15.4504C14.5419 15.5682 14.7735 15.5682 14.9471 15.4504C15.0406 15.3855 15.1133 15.2962 15.1569 15.193L19.7798 4.4823C19.8133 4.40018 19.8314 4.31292 19.833 4.22489C19.8311 4.09928 19.7743 3.98036 19.6763 3.89799C19.5738 3.80223 19.4362 3.75023 19.2939 3.75384Z" fill="#252623" fill-rule="evenodd"></path><path clip-rule="evenodd" d="M29.411 4.76022C29.5486 4.76536 29.6821 4.71723 29.7828 4.62637C29.8826 4.53499 29.9368 4.40654 29.9315 4.27372C29.9352 4.13884 29.8813 4.00859 29.7828 3.91335C29.6845 3.81811 29.5499 3.76663 29.411 3.77178H23.0541C23.0406 3.77101 23.027 3.77075 23.0135 3.77126C22.735 3.77873 22.5154 4.0037 22.5231 4.27372V15.0024C22.5223 15.0181 22.5223 15.0341 22.5231 15.0498C22.5366 15.3211 22.7745 15.5301 23.0541 15.5172H29.411C29.5483 15.5208 29.6813 15.4729 29.7828 15.3834C29.8818 15.2917 29.9362 15.1635 29.9315 15.0307C29.9325 14.8984 29.8791 14.7715 29.7828 14.6781C29.6882 14.582 29.556 14.5295 29.419 14.5339H23.633V9.96754H28.6542C28.7918 9.97037 28.9251 9.92146 29.026 9.83111C29.1253 9.73973 29.1787 9.61103 29.172 9.47846C29.1728 9.46173 29.1726 9.445 29.1715 9.42801C29.1537 9.16134 28.9161 8.95928 28.641 8.97627H23.633V4.76022H29.411Z" fill="#252623" fill-rule="evenodd"></path><path clip-rule="evenodd" d="M38.6595 9.58167H34.5039V4.76046H38.5294C39.1741 4.73395 39.8023 4.9615 40.2713 5.39111C40.7128 5.80579 40.9547 6.38083 40.9377 6.97673C40.9473 7.43156 40.8406 7.88177 40.6271 8.28692C40.4303 8.65321 40.1419 8.96544 39.788 9.19557C39.4521 9.41539 39.0636 9.54847 38.6595 9.58167ZM42.2601 14.6188C42.0461 14.4824 41.8942 14.2716 41.8352 14.0296C41.7269 13.5504 41.6778 13.0605 41.6892 12.5699C41.6958 11.9866 41.5219 11.4147 41.19 10.9276C40.886 10.4895 40.4505 10.1526 39.942 9.96238C40.562 9.76495 41.0957 9.37163 41.4582 8.84549C41.8493 8.28924 42.0517 7.62899 42.0371 6.95613C42.0487 6.38058 41.8961 5.81325 41.5963 5.31646C41.3039 4.83691 40.8815 4.44437 40.3748 4.1813C39.8313 3.90253 39.2237 3.76173 38.609 3.77203H33.9436C33.9263 3.771 33.9091 3.77074 33.8918 3.77125C33.6162 3.78181 33.4016 4.00678 33.4125 4.27397V15.0207C33.4096 15.1602 33.4736 15.293 33.5851 15.381C33.7014 15.4765 33.8496 15.528 34.002 15.5252C34.139 15.5293 34.2712 15.477 34.3658 15.381C34.4582 15.2824 34.5076 15.1535 34.5039 15.0207V10.5032H38.3408C38.9176 10.4888 39.4834 10.6569 39.9526 10.9817C40.4022 11.3011 40.6271 11.8528 40.6271 12.6371C40.6271 13.5208 40.7264 14.1643 40.9245 14.5676C41.0846 14.93 41.3576 15.2353 41.7051 15.4402C41.7944 15.4878 41.8955 15.511 41.9972 15.5072C42.0904 15.5092 42.1826 15.486 42.2628 15.4402C42.3437 15.3978 42.4101 15.3334 42.4539 15.2549C42.493 15.1885 42.5163 15.1146 42.523 15.0387C42.5187 14.8634 42.4186 14.7033 42.2601 14.6188Z" fill="#252623" fill-rule="evenodd"></path><path clip-rule="evenodd" d="M52.9959 3.70224C52.8148 3.70584 52.6467 3.79387 52.5444 3.93905L49.0447 8.67274L45.46 3.93905C45.371 3.7895 45.2051 3.69889 45.0272 3.70224C44.8846 3.7043 44.7478 3.75861 44.6448 3.85411C44.5367 3.94163 44.4738 4.07033 44.4722 4.20675C44.4706 4.337 44.52 4.46313 44.6103 4.5594L48.5004 9.69748V15.0204C48.495 15.155 48.5482 15.2855 48.6464 15.381C48.7446 15.4762 48.879 15.5285 49.0182 15.5249C49.1605 15.5285 49.298 15.4765 49.4005 15.381C49.5038 15.2881 49.5609 15.1568 49.5572 15.0204V9.67405L53.4181 4.52594C53.4773 4.43018 53.5144 4.3231 53.5269 4.2119C53.5243 4.08191 53.4688 3.9581 53.3729 3.86698C53.2781 3.76118 53.1403 3.70121 52.9959 3.70224Z" fill="#252623" fill-rule="evenodd"></path><path clip-rule="evenodd" d="M64.3661 13.1825C63.6847 14.0834 62.6507 14.5364 61.2646 14.5413H57.5923V4.76014H61.2646C62.095 4.72925 62.9126 4.96246 63.5934 5.42399C64.2153 5.87033 64.6887 6.48347 64.9556 7.18722C65.2532 7.9754 65.3998 8.80939 65.3884 9.64828C65.3865 11.1034 65.0459 12.2815 64.3661 13.1825ZM64.236 4.56709C63.4123 4.01573 62.4269 3.7367 61.4266 3.77145H57.0108C56.8719 3.76656 56.7373 3.81804 56.639 3.91328C56.5405 4.00852 56.4869 4.13877 56.4903 4.27365V14.9972C56.4895 15.0129 56.4895 15.0288 56.4903 15.0445C56.5039 15.3158 56.7418 15.5251 57.0214 15.512H61.4372C62.4309 15.548 63.411 15.2777 64.236 14.7398C64.9994 14.2113 65.5886 13.48 65.9327 12.6339C66.3201 11.6833 66.5116 10.6679 66.4957 9.6457C66.5084 8.63693 66.3172 7.63562 65.9327 6.69841C65.5875 5.84614 64.9989 5.10687 64.236 4.56709Z" fill="#252623" fill-rule="evenodd"></path><path clip-rule="evenodd" d="M70.9643 11.1413L73.3541 5.41143L75.7784 11.1413H70.9643ZM73.9382 4.0549C73.8958 3.95838 73.827 3.87472 73.7391 3.81294C73.6515 3.75065 73.545 3.71796 73.4364 3.72028C73.2056 3.70586 72.9937 3.8428 72.9186 4.0549L68.3434 14.902C68.331 14.9519 68.3257 15.0029 68.3275 15.0539V15.1053C68.3326 15.2243 68.3814 15.3378 68.4656 15.4248C68.5662 15.5087 68.6971 15.5501 68.8294 15.5403C69.0452 15.544 69.2367 15.4068 69.2967 15.2057L70.5792 12.1326H76.2086L77.4938 15.2057C77.5373 15.3017 77.6058 15.3851 77.6929 15.4477C77.7808 15.5097 77.887 15.5422 77.9956 15.5403C78.13 15.5422 78.2601 15.4943 78.3594 15.4065C78.4632 15.3177 78.5208 15.1882 78.5161 15.0539C78.5158 14.9908 78.5089 14.9277 78.4948 14.8662L73.9382 4.0549Z" fill="#252623" fill-rule="evenodd"></path><path clip-rule="evenodd" d="M88.1577 3.86699C88.0703 3.76764 87.9442 3.70818 87.8098 3.70226C87.6298 3.70663 87.4628 3.79466 87.3611 3.93907L83.8401 8.66246L80.2554 3.92877C80.1659 3.77973 80.0005 3.68913 79.8226 3.69196C79.68 3.69376 79.5432 3.74807 79.4402 3.84383C79.3321 3.93135 79.2692 4.06005 79.2676 4.19647C79.266 4.32672 79.3154 4.45259 79.4057 4.54912L83.2851 9.69724V15.0101C83.2843 15.0261 83.2843 15.0418 83.2851 15.0577C83.2987 15.3288 83.5366 15.538 83.8162 15.5249C83.9583 15.527 84.0956 15.4755 84.1986 15.3808C84.3013 15.2878 84.3574 15.1563 84.3526 15.0204V9.67407L88.2161 4.52595C88.2719 4.42943 88.3053 4.32235 88.3144 4.21192C88.3117 4.08141 88.2554 3.95709 88.1577 3.86699Z" fill="#252623" fill-rule="evenodd"></path><defs><linearGradient gradientUnits="userSpaceOnUse" id="paint0_linear_3970_75581" x1="102.957" x2="90.5397" y1="-0.267581" y2="-0.267581"><stop stop-color="#007db2"></stop><stop offset="1" stop-color="#98d5ab"></stop></linearGradient></defs></svg>