<svg version="1.1" id="Layer_1" xmlns:x="ns_extend;" xmlns:i="ns_ai;" xmlns:graph="ns_graphs;" xmlns="http://www.w3.org/2000/svg" xmlns:xlink="http://www.w3.org/1999/xlink" x="0px" y="0px" viewBox="0 0 381.9 87" style="enable-background:new 0 0 381.9 87;" xml:space="preserve">
 <style type="text/css">
  .st0{fill:#00283C;}
	.st1{fill:#FF0069;}
	.st2{fill:#FFD700;}
	.st3{fill:#00D6F2;}
 </style>
 <metadata>
  <sfw xmlns="ns_sfw;">
   <slices>
   </slices>
   <sliceSourceBounds bottomLeftOrigin="true" height="87" width="381.9" x="8.7" y="-243.7">
   </sliceSourceBounds>
  </sfw>
 </metadata>
 <g>
  <rect y="0.6" class="st0" width="7.1" height="48.3">
  </rect>
  <g>
   <path class="st0" d="M30.5,15.8c-4.5,0-7.4,1.7-9.2,3.1l0,0v-2.6h-7.1v32.5h7.1L21.3,30c0.4-3.6,3.2-7.5,8.4-7.5h0.1
			c2.2,0,4,0.7,5.4,2.1c1.6,1.6,2.5,4,2.5,7v17.3h7.1V31C44.8,21.9,39.1,15.8,30.5,15.8">
   </path>
   <path class="st0" d="M63.8,28.9L63.8,28.9c-0.3-0.1-0.6-0.1-0.8-0.2l-0.3-0.1c-4.8-1.3-5.6-2.1-5.6-3.4c0-2.6,3.7-2.8,4.8-2.8
			c3.2,0,5.2,0.6,8.4,2.5l1.1,0.6l3.3-5.6l-0.9-0.7c-3.2-2.3-6.9-3.3-11.4-3.3c-7.3,0-12.2,3.9-12.2,9.6c0,6.2,5.5,8.5,11.5,10
			c5.8,1.5,6.2,2.6,6.2,4.2c0,2.8-3.5,3.3-5.6,3.3c-3.6,0-6.6-1-9.3-3l-1.1-0.8L48.2,45l1,0.6c4.1,2.6,8.2,3.8,13,3.8
			c7.4,0,12.6-4.1,12.6-9.9C74.8,33.8,71.9,31.1,63.8,28.9">
   </path>
   <path class="st0" d="M83.2,8.3c2.3,0,4.1-1.9,4.1-4.1S85.5,0,83.2,0c-2.3,0-4.1,1.8-4.1,4.1S80.9,8.3,83.2,8.3 M79.6,48.7v0.1h7.2
			V16.4h-7.1L79.6,48.7z">
   </path>
   <path class="st0" d="M146.3,15.8c-3.6,0-6.9,1.2-9.3,3.3l-0.1,0V0.6h-7v48.3h7.1V30.7c0.1-4,3-8.2,8.4-8.2h0.1
			c2.2,0,4,0.7,5.4,2.1c1.6,1.6,2.5,4.1,2.5,7v17.3h7.1V31C160.6,21.9,154.8,15.8,146.3,15.8">
   </path>
   <path class="st0" d="M360.8,19.1L360.8,19.1c-2.9-2.1-6.3-3.2-9.9-3.2c-9.3,0-16.8,7.5-16.8,16.8s7.5,16.8,16.8,16.8
			c3.5,0,6.9-1.1,9.8-3.2l0,0v2.6h7V16.4h-7V19.1z M350.9,42.8c-5.6,0-10.1-4.5-10.1-10.1s4.5-10.1,10.1-10.1
			c5.6,0,10.1,4.5,10.1,10.1S356.5,42.8,350.9,42.8">
   </path>
   <rect x="246.3" y="0.6" class="st0" width="7.1" height="48.3">
   </rect>
   <path class="st0" d="M313.4,15.8c-3.5,0-6.9,1.1-9.8,3.2l0,0V0.6h-7v48.3h7v-2.6l0,0c2.9,2.1,6.3,3.2,9.8,3.2
			c9.3,0,16.8-7.5,16.8-16.8S322.7,15.8,313.4,15.8 M313.4,42.8c-5.6,0-10.1-4.5-10.1-10.1s4.5-10.1,10.1-10.1
			c5.6,0,10.1,4.5,10.1,10.1S319,42.8,313.4,42.8">
   </path>
   <rect x="374.8" y="0.6" class="st0" width="7.1" height="48.3">
   </rect>
   <path class="st0" d="M187.3,40.8l-0.5,0.4h0c-0.8,0.6-2.4,1.8-4.9,1.8c-3.8,0-5.5-1.5-5.5-5V22.7h11.2v-6.2h-11.2V6.1h-7v6.5
			c0,2.1-1.7,3.8-3.8,3.8h-2.3v6.2h6.1v15.2c0,7,4.6,11.6,11.7,11.6c5.4,0,8.3-2.3,9.3-3.1l0.4-0.3
			C189.5,44.4,188.3,42.7,187.3,40.8">
   </path>
   <path class="st0" d="M241.4,22.7h-24.6v6.7h17c-2,7.5-8.8,13-17,13c-9.7,0-17.6-7.9-17.6-17.6s7.9-17.6,17.6-17.6
			c6.5,0,12.2,3.5,15.2,8.8l6.2-3.6C233.9,5,225.9,0,216.8,0C203.1,0,192,11.1,192,24.7c0,13.7,11.1,24.7,24.7,24.7
			c13.7,0,24.7-11.1,24.7-24.7C241.5,24,241.5,23.4,241.4,22.7">
   </path>
   <path class="st1" d="M108.4,53.4c-9.3,0-16.8,7.5-16.8,16.8S99.1,87,108.4,87c9.3,0,16.8-7.5,16.8-16.8S117.6,53.4,108.4,53.4">
   </path>
   <path class="st2" d="M108.4,15.8c-9.3,0-16.8,7.5-16.8,16.8s7.5,16.8,16.8,16.8c9.3,0,16.8-7.5,16.8-16.8S117.6,15.8,108.4,15.8">
   </path>
   <path class="st3" d="M275,15.8c-9.3,0-16.8,7.5-16.8,16.8s7.5,16.8,16.8,16.8c9.3,0,16.8-7.5,16.8-16.8S284.2,15.8,275,15.8">
   </path>
  </g>
 </g>
</svg>