<svg xmlns="http://www.w3.org/2000/svg" viewBox="0 0 706.92 149.26" xmlns:xlink="http://www.w3.org/1999/xlink">
 <defs>
  <style>
   .cls-1{fill:#03428e;}
  </style>
 </defs>
 <g id="Layer_2" data-name="Layer 2">
  <g id="Isolation_Mode" data-name="Isolation Mode">
   <path class="cls-1" d="M245.51,87.54h35.84l-2.29,6.17h-43V51.93h9.41Zm-40-29.47,2.28-6.14H160.16V93.71h45.39l2.29-6.14H169.57V75.74h26.78l2.25-6.1h-29V58.07Zm-128.92,0h26.79V93.71h9.42V58.07h24.44l2.29-6.14H78.85ZM615.78,93.29h9.41V51.93h-9.41Zm-572-23.88H14.91c-3.53,0-5.73-2.31-5.73-5.14V63.1c0-3,2.42-5,5.62-5h39l2.29-6.14h-44C4.13,52,.11,57.26,0,62.55v2.74C.08,70.66,4.18,76.2,12.29,76.2H41.15c3.53,0,5.73,2.31,5.73,5.14v1.17c0,3-2.43,5-5.63,5h-39L0,93.68H44c7.94-.09,12-5.33,12.07-10.62V80.32C56,75,51.88,69.41,43.77,69.41Zm650.86,0H665.78c-3.53,0-5.74-2.31-5.74-5.14V63.1c0-3,2.43-5,5.63-5h39l2.29-6.14h-44c-7.93.09-12,5.33-12.06,10.62v2.74c.08,5.37,4.18,10.91,12.29,10.91H692c3.53,0,5.73,2.31,5.73,5.14v1.17c0,3-2.43,5-5.63,5h-39l-2.29,6.14h44c7.93-.09,12-5.33,12.06-10.62V80.32C706.84,75,702.75,69.41,694.63,69.41ZM504.3,82.87,464.79,51.93h-9.42V93.29h9.42v-31l39.51,31h9.41V51.93H504.3ZM368.89,93.29H379l22.69-41.36H391.58Zm34.32-41.36,22.68,41.36H436L413.29,51.93Zm-87.57,0h-9.41V93.71h43l2.29-6.17H315.64Zm217.3,6.14h26.8V93.71h9.41V58.07H593.6l2.28-6.14H535.23Zm-173.61,37a4.33,4.33,0,1,0,4.33,4.33A4.32,4.32,0,0,0,359.33,95.11Zm11.46,12.82a4.33,4.33,0,1,0,4.33,4.32A4.32,4.32,0,0,0,370.79,107.93ZM450,99.44a4.33,4.33,0,1,0-4.32,4.32A4.32,4.32,0,0,0,450,99.44Zm-15.73,8.84a4.33,4.33,0,1,0,4.33,4.33A4.32,4.32,0,0,0,434.27,108.28Zm-14.82,8.58a4.33,4.33,0,1,0,4.33,4.33A4.33,4.33,0,0,0,419.45,116.86Zm-29.85,4.33a4.33,4.33,0,1,0-4.33,4.32A4.33,4.33,0,0,0,389.6,121.19ZM326.93,63.07a2.2,2.2,0,1,0,2.39,2A2.19,2.19,0,0,0,326.93,63.07Zm9.57,42.09a2.2,2.2,0,1,0,2.38,2A2.2,2.2,0,0,0,336.5,105.16Zm17.15,18.16a2.2,2.2,0,1,0,2.38,2A2.2,2.2,0,0,0,353.65,123.32ZM376.74,135a2.2,2.2,0,1,0,2.39,2A2.2,2.2,0,0,0,376.74,135Zm25.6,2.95a2.2,2.2,0,1,0,2.38,2A2.2,2.2,0,0,0,402.34,137.92Zm26.59-3.62a2.2,2.2,0,1,0,2.38,2A2.21,2.21,0,0,0,428.93,134.3Zm22.54-11a2.2,2.2,0,1,0,2.38,2A2.2,2.2,0,0,0,451.47,123.32Zm17.12-18.13a2.2,2.2,0,1,0,.38,4.39,2.2,2.2,0,0,0-.38-4.39Zm8.67-21.33a2.2,2.2,0,1,0,2.38,2A2.21,2.21,0,0,0,477.26,83.86ZM334.52,42.1a2.2,2.2,0,1,0,2-2.38A2.19,2.19,0,0,0,334.52,42.1ZM354,26a2.2,2.2,0,1,0-2.39-2A2.2,2.2,0,0,0,354,26Zm22.11-11a2.2,2.2,0,1,0-2.38-2A2.19,2.19,0,0,0,376.14,15ZM335.63,29.1A1.16,1.16,0,1,0,334.37,28,1.17,1.17,0,0,0,335.63,29.1Zm-14.31,74.33a1.17,1.17,0,0,0,1.06-1.26,1.16,1.16,0,0,0-1.26-1,1.14,1.14,0,0,0-1.05,1.25A1.16,1.16,0,0,0,321.32,103.43Zm14.31,19a1.16,1.16,0,1,0-1.26-1.06A1.17,1.17,0,0,0,335.63,122.48Zm22.77,16.28a1.16,1.16,0,0,0,1.05-1.26,1.14,1.14,0,0,0-1.25-1.05,1.16,1.16,0,0,0-1.06,1.25A1.17,1.17,0,0,0,358.4,138.76Zm29,10.5a1.16,1.16,0,1,0-1.25-1.06A1.17,1.17,0,0,0,387.37,149.26Zm30.52,0a1.16,1.16,0,1,0-1.26-1.06A1.16,1.16,0,0,0,417.89,149.26Zm29-10.46a1.16,1.16,0,0,0,1.06-1.25,1.17,1.17,0,0,0-1.26-1.06,1.16,1.16,0,0,0-1.05,1.26A1.14,1.14,0,0,0,446.86,138.8ZM470,122.7a1.14,1.14,0,0,0,1-1.25,1.16,1.16,0,0,0-1.25-1.06,1.17,1.17,0,0,0-1.06,1.26A1.16,1.16,0,0,0,470,122.7Zm13.9-19.27a1.16,1.16,0,0,0,1.05-1.26,1.14,1.14,0,0,0-1.25-1,1.16,1.16,0,0,0-1.06,1.25A1.17,1.17,0,0,0,483.94,103.43ZM358.4,12.82a1.16,1.16,0,0,0,1.05-1.26,1.14,1.14,0,0,0-1.25-1.05,1.16,1.16,0,0,0-1.06,1.25A1.17,1.17,0,0,0,358.4,12.82Zm29-10.5a1.17,1.17,0,0,0,1.06-1.26,1.16,1.16,0,1,0-1.06,1.26Zm-32.76,68a4.33,4.33,0,1,0-4.33-4.33A4.32,4.32,0,0,0,354.61,70.27Zm4.72-16.11A4.33,4.33,0,1,0,355,49.83,4.33,4.33,0,0,0,359.33,54.16Zm11.46-12.82A4.33,4.33,0,1,0,366.47,37,4.33,4.33,0,0,0,370.79,41.34Zm14.48-8.93A4.33,4.33,0,1,0,381,28.08,4.33,4.33,0,0,0,385.27,32.41Zm17.26-2.56a4.33,4.33,0,1,0-4.33-4.33A4.33,4.33,0,0,0,402.53,29.85Zm0,98.43A4.33,4.33,0,1,0,398.2,124,4.33,4.33,0,0,0,402.53,128.28ZM353.75,33.61a3.4,3.4,0,1,0,3.4,3.4A3.4,3.4,0,0,0,353.75,33.61ZM342.92,51.42a3.4,3.4,0,1,0,3.4,3.39A3.4,3.4,0,0,0,342.92,51.42Zm-4.15,20a3.4,3.4,0,1,0,3.4,3.4A3.4,3.4,0,0,0,338.77,71.37Zm31.51-51.15a3.4,3.4,0,1,0,3.39,3.4A3.4,3.4,0,0,0,370.28,20.22ZM391.8,13a3.4,3.4,0,1,0,3.4,3.4A3.4,3.4,0,0,0,391.8,13Zm10.73-6a2.2,2.2,0,1,0,2.2,2.2A2.19,2.19,0,0,0,402.53,7Zm66,32.77a2.2,2.2,0,1,0,2,2.38A2.19,2.19,0,0,0,468.54,39.72ZM453.42,24A2.2,2.2,0,1,0,451,26,2.2,2.2,0,0,0,453.42,24ZM431.3,13a2.2,2.2,0,1,0-2.38,2A2.19,2.19,0,0,0,431.3,13ZM470.69,28a1.16,1.16,0,1,0-1.26,1.06A1.16,1.16,0,0,0,470.69,28ZM447.92,11.76a1.16,1.16,0,0,0-1.06-1.25,1.14,1.14,0,0,0-1.25,1.05,1.16,1.16,0,0,0,1.05,1.26A1.17,1.17,0,0,0,447.92,11.76Zm-29-10.5A1.16,1.16,0,0,0,417.89,0a1.17,1.17,0,0,0-1.26,1.06,1.17,1.17,0,0,0,1.06,1.26A1.16,1.16,0,0,0,418.94,1.26Zm31.11,48.57a4.33,4.33,0,1,0-4.32,4.33A4.32,4.32,0,0,0,450.05,49.83ZM438.59,37a4.33,4.33,0,1,0-4.32,4.33A4.32,4.32,0,0,0,438.59,37Zm-14.48-8.93a4.33,4.33,0,1,0-4.32,4.33A4.32,4.32,0,0,0,424.11,28.08ZM447.91,37a3.4,3.4,0,1,0,3.4-3.4A3.4,3.4,0,0,0,447.91,37Zm.25,75.24a3.4,3.4,0,1,0,3.39-3.4A3.4,3.4,0,0,0,448.16,112.25ZM431.4,125.7a3.4,3.4,0,1,0,3.4-3.4A3.4,3.4,0,0,0,431.4,125.7Zm-21.06,6.65a3.4,3.4,0,1,0,3.4-3.4A3.4,3.4,0,0,0,410.34,132.35Zm-21.9.26a3.4,3.4,0,1,0,3.4-3.4A3.4,3.4,0,0,0,388.44,132.61Zm-21.36-6.45a3.4,3.4,0,1,0,3.4-3.39A3.4,3.4,0,0,0,367.08,126.16Zm-16.73-14a3.4,3.4,0,1,0,3.39-3.4A3.4,3.4,0,0,0,350.35,112.12Zm81-88.5a3.4,3.4,0,1,0,3.39-3.4A3.39,3.39,0,0,0,431.39,23.62Zm-21.53-7.25a3.4,3.4,0,1,0,3.4-3.4A3.4,3.4,0,0,0,409.86,16.37ZM483.94,54a1.16,1.16,0,0,0-.2-2.31,1.16,1.16,0,1,0,.2,2.31Z">
   </path>
  </g>
 </g>
</svg>