<svg version="1.1" id="Layer_1" xmlns:x="ns_extend;" xmlns:i="ns_ai;" xmlns:graph="ns_graphs;" xmlns="http://www.w3.org/2000/svg" xmlns:xlink="http://www.w3.org/1999/xlink" x="0px" y="0px" viewBox="0 0 42 53" style="enable-background:new 0 0 42 53;" xml:space="preserve">
 <style type="text/css">
  .st0{fill:#0078D6;}
 </style>
 <metadata>
  <sfw xmlns="ns_sfw;">
   <slices>
   </slices>
   <sliceSourceBounds bottomLeftOrigin="true" height="53" width="42" x="178.3" y="-226.7">
   </sliceSourceBounds>
  </sfw>
 </metadata>
 <g>
  <g>
   <path class="st0" d="M31.1,22.6c-1.2,0-2.2,0.4-5.4,2.8v12.5c5.6-6.3,7.2-10.6,7.2-12.8C32.9,23.5,32.2,22.6,31.1,22.6L31.1,22.6z
			 M31.6,14.3c0-2.2-2.5-4-5.9-4.3v11.5C29.9,19.1,31.6,16.6,31.6,14.3L31.6,14.3z M41.5,9.4c-0.1-0.2-0.1-0.3-0.2-0.3l-4-1.1
			l-0.6-2.3c0-0.1-0.1-0.2-0.2-0.2l-4.1-1.1l-0.5-2.2C32.1,2.1,32,2,31.8,2L21.3,0c-0.2,0-0.4,0-0.5,0L10.2,2C10.1,2,10,2.1,10,2.3
			L9.5,4.4L5.4,5.5c-0.1,0-0.1,0.1-0.2,0.2L4.7,8l-4,1.1c-0.1,0-0.2,0.1-0.2,0.3C0.2,11.2,0,13,0,14.8c0,15.9,8.3,29.8,20.6,38
			c0.2,0.3,0.7,0.3,0.9,0C33.8,44.5,42,30.7,42,14.8C42,13,41.9,11.2,41.5,9.4L41.5,9.4z M19.5,45.4c0,0.1-0.1,0.2-0.2,0.1
			c-3-3.5-5.1-7.7-6.4-12.4l-2.1,1.3c-0.6,0.4-1,0.2-1.3-0.4c-2.8-5-4.6-13.2-4.8-18.9c0-0.3,0.1-0.5,0.3-0.7
			c0.8-0.9,1.6-1.8,2.4-2.5c0.2-0.2,0.3-0.1,0.3,0.2c0,7.1,1.2,13.7,3.1,18c0.2,0.3,0.3,0.3,0.6,0.2l0.6-0.4
			c-1.2-5.1-1.8-12-1.7-19.9c0-0.3,0.1-0.4,0.2-0.5c0.8-0.5,1.7-1,2.6-1.4C13.4,8,13.5,8,13.5,8.2c-0.2,11.5,0.8,19.5,2.8,25.8
			c0.1,0.2,0.2,0.1,0.2-0.1c-0.1-2.3-0.1-4.4-0.1-6.9L16.3,7.3c0-0.2,0.1-0.3,0.3-0.4c0.9-0.2,1.8-0.4,2.8-0.5
			c0.1,0,0.2,0.1,0.2,0.2V45.4L19.5,45.4z M22.8,45.5c-0.1,0.1-0.2,0.1-0.2-0.1V6.6c0-0.1,0.1-0.2,0.2-0.2
			c7.4,0.5,12.1,3.6,12.1,8.1c0,1.9-0.7,3.6-1.9,5c2.4,0.7,3.4,2.5,3.4,4.9C36.2,28.7,33.1,35.9,22.8,45.5L22.8,45.5z M22.8,45.5">
   </path>
  </g>
 </g>
</svg>